<?xml version="1.0" encoding="iso-8859-1"?>
<!-- Generator: Adobe Illustrator 18.1.1, SVG Export Plug-In . SVG Version: 6.00 Build 0)  -->
<svg version="1.1" id="Capa_1" xmlns="http://www.w3.org/2000/svg" xmlns:xlink="http://www.w3.org/1999/xlink" x="0px" y="0px"
	 viewBox="0 0 259.669 259.669" style="enable-background:new 0 0 259.669 259.669;" xml:space="preserve">
<g>
	<path id="path6216" d="M161.188,0.004c-2.649-0.107-4.855,2.011-4.855,4.662v25.047C116.285,30.64,79.5,52.366,59.407,87.168
		c-20.539,35.574-20.539,79.426,0,115s58.516,57.5,99.594,57.5c6.762,0.096,6.762-10.096,0-10c-37.521,0-72.173-20.006-90.934-52.5
		s-18.76-72.506,0-105c18.315-31.722,51.777-51.531,88.266-52.455v24.955c0.002,3.627,3.958,5.866,7.068,4l50-30
		c3.019-1.813,3.019-6.189,0-8.002l-50-30C162.731,0.263,161.97,0.036,161.188,0.004z M165.667,12.908l36.264,21.758l-36.264,21.76
		V12.908z M75.624,177.139c-1.896,0.073-3.023,2.149-2.051,3.779c19.874,34.422,45.239,56.25,85.428,56.25
		c3.381,0.048,3.381-5.048,0-5c-38.41,0-61.672-20.104-81.098-53.75C77.445,177.597,76.564,177.102,75.624,177.139z"/>
</g>
<g>
</g>
<g>
</g>
<g>
</g>
<g>
</g>
<g>
</g>
<g>
</g>
<g>
</g>
<g>
</g>
<g>
</g>
<g>
</g>
<g>
</g>
<g>
</g>
<g>
</g>
<g>
</g>
<g>
</g>
</svg>
