<?xml version="1.0" encoding="iso-8859-1"?>
<!-- Generator: Adobe Illustrator 18.0.0, SVG Export Plug-In . SVG Version: 6.00 Build 0)  -->
<!DOCTYPE svg PUBLIC "-//W3C//DTD SVG 1.1//EN" "http://www.w3.org/Graphics/SVG/1.1/DTD/svg11.dtd">
<svg version="1.1" id="Capa_1" xmlns="http://www.w3.org/2000/svg" xmlns:xlink="http://www.w3.org/1999/xlink" x="0px" y="0px"
	 viewBox="0 0 395.602 395.602" style="enable-background:new 0 0 395.602 395.602;" xml:space="preserve">
<g>
	<path d="M228.385,370.341c0,0-0.43-0.114-1.221-0.317l-13.693-123.585c-2.004-17.073-0.768-33.674,4.438-49.888
		c3.458-10.774,8.466-20.948,15.541-29.824c3.206-4.021,6.802-7.768,10.761-11.053c0.798-0.662,6.862-4.275,6.862-4.893
		c0,0.018-11.134,4.528-12.029,5.007c-5.668,3.033-10.762,6.814-15.695,10.908c-6.254,5.702-11.791,11.886-16.639,18.72
		l-9.039-81.582l-8.926,81.248c-5.262-7.409-11.309-14.142-18.33-20c-4.855-4.053-10.203-7.503-15.836-10.368
		c-0.829-0.414-9.966-3.841-9.966-3.933c0,0.678,7.505,5.417,8.425,6.232c3.861,3.475,7.439,7.281,10.539,11.456
		c6.527,8.261,11.002,18.118,14.201,28.082c4.826,15.038,6.107,30.481,4.629,46.231l-12.745,116.021
		c-11.337-1.341-22.081-1.836-29.825-0.563c-16.778,2.76-38.275,13.066-42.713,31.343c27.801-23.405,71.125-7.518,101.879,0.685
		c18.406,4.909,37.916,7.203,56.768,3.513c16.701-3.251,38.23-13.139,42.709-31.394
		C279.504,378.155,257.768,377.615,228.385,370.341z"/>
	<g>
		<path d="M333.854,141.07c-1.088,0-2.662-0.934-4.33-1.922c-1.102-0.654-2.35-1.395-3.701-2.018
			c-1.469-0.683-3.088-1.085-4.652-1.474c-1.615-0.402-3.287-0.817-4.764-1.533c-1.025-0.498-2.072-1.272-3.18-2.092
			c-1.57-1.16-3.348-2.475-5.471-3.27c-2.07-0.774-4.234-0.91-6.328-1.041c-1.365-0.085-2.654-0.166-3.877-0.414
			c-1.021-0.206-2.104-0.581-3.25-0.979c-2.031-0.704-4.332-1.501-6.857-1.501c-1.912,0-3.613,0.566-5.115,1.065
			c-0.982,0.328-1.912,0.637-2.676,0.702c-1.063,0.091-2.129-0.063-3.291-0.22c-1.602-0.218-3.369-0.39-4.799-0.086
			c-2.193,0.464-3.932,1.637-5.328,2.579c-0.729,0.492-1.416,0.956-2.006,1.213c-0.84,0.366-1.76,0.649-2.647,0.923
			c-1.912,0.59-3.891,1.2-5.307,2.706c-2.359,2.528-2.312,5.656-2.275,8.17c0.006,0.299,0.01,0.594,0.01,0.885
			c0,0.291-0.004,0.586-0.01,0.885c-0.037,2.515-0.084,5.645,2.283,8.178c1.41,1.497,3.385,2.106,5.295,2.695
			c0.889,0.274,1.809,0.558,2.648,0.924c0.59,0.258,1.277,0.722,2.004,1.212c1.398,0.944,3.137,2.118,5.332,2.584
			c1.43,0.303,3.195,0.13,4.793-0.087c1.164-0.158,2.223-0.309,3.293-0.22c0.77,0.065,1.701,0.375,2.689,0.703
			c1.498,0.498,3.195,1.063,5.105,1.063v-2.424l0.01,2.424c2.523,0,4.824-0.799,6.855-1.503c1.143-0.397,2.225-0.772,3.24-0.978
			c1.219-0.246,2.506-0.326,3.869-0.411c2.098-0.131,4.266-0.267,6.338-1.042c2.121-0.795,3.897-2.107,5.463-3.266
			c1.111-0.82,2.158-1.595,3.188-2.093c1.478-0.718,3.15-1.133,4.768-1.536c1.564-0.389,3.184-0.792,4.647-1.472
			c3.31-1.53,5.81-2.479,8.033-2.479c1.34,0,2.426-1.086,2.426-2.424C336.279,142.156,335.193,141.07,333.854,141.07z"/>
		<path d="M61.748,144.455c1.088,0,2.662,0.934,4.33,1.922c1.102,0.654,2.35,1.395,3.701,2.018c1.469,0.683,3.088,1.085,4.652,1.474
			c1.615,0.402,3.287,0.817,4.764,1.533c1.025,0.498,2.072,1.272,3.18,2.092c1.57,1.16,3.348,2.475,5.471,3.27
			c2.07,0.774,4.234,0.91,6.328,1.041c1.365,0.085,2.654,0.166,3.877,0.414c1.021,0.206,2.104,0.581,3.25,0.979
			c2.031,0.704,4.332,1.501,6.857,1.501c1.912,0,3.613-0.566,5.115-1.065c0.982-0.328,1.912-0.637,2.676-0.702
			c1.063-0.091,2.129,0.063,3.291,0.22c1.602,0.218,3.369,0.39,4.799,0.086c2.193-0.464,3.932-1.637,5.328-2.579
			c0.729-0.492,1.416-0.956,2.006-1.213c0.84-0.366,1.76-0.649,2.646-0.923c1.912-0.59,3.891-1.2,5.307-2.706
			c2.359-2.528,2.313-5.656,2.275-8.17c-0.006-0.299-0.01-0.594-0.01-0.885c0-0.29,0.004-0.586,0.01-0.885
			c0.037-2.515,0.084-5.645-2.283-8.178c-1.41-1.498-3.385-2.106-5.295-2.695c-0.889-0.274-1.809-0.558-2.648-0.924
			c-0.59-0.258-1.277-0.722-2.004-1.212c-1.398-0.944-3.137-2.118-5.332-2.584c-1.43-0.303-3.195-0.13-4.793,0.087
			c-1.164,0.158-2.223,0.309-3.293,0.22c-0.77-0.065-1.701-0.375-2.689-0.703c-1.498-0.498-3.195-1.063-5.105-1.063v2.424
			l-0.01-2.424c-2.523,0-4.824,0.799-6.855,1.503c-1.143,0.397-2.225,0.772-3.24,0.978c-1.219,0.246-2.506,0.326-3.869,0.411
			c-2.098,0.131-4.266,0.267-6.338,1.042c-2.121,0.794-3.896,2.107-5.463,3.266c-1.111,0.82-2.158,1.595-3.188,2.093
			c-1.479,0.718-3.15,1.133-4.768,1.536c-1.564,0.389-3.184,0.792-4.646,1.472c-3.311,1.53-5.811,2.479-8.033,2.479
			c-1.34,0-2.426,1.085-2.426,2.424C59.322,143.37,60.408,144.455,61.748,144.455z"/>
	</g>
	<g>
		<path d="M321.289,272.105c-1.184-1.184-1.879-3.911-2.617-6.799c-0.488-1.909-1.039-4.072-1.832-6.218
			c-0.855-2.34-2.176-4.539-3.455-6.662c-1.32-2.194-2.685-4.463-3.512-6.849c-0.574-1.656-0.871-3.636-1.184-5.733
			c-0.447-2.968-0.949-6.33-2.395-9.504c-1.408-3.093-3.617-5.594-5.748-8.013c-1.393-1.577-2.707-3.067-3.768-4.666
			c-0.887-1.334-1.654-2.919-2.469-4.599c-1.445-2.974-3.078-6.343-5.824-9.089c-2.08-2.079-4.545-3.314-6.723-4.404
			c-1.424-0.712-2.77-1.387-3.672-2.146c-1.254-1.057-2.248-2.383-3.34-3.818c-1.504-1.979-3.238-4.088-5.123-5.313
			c-2.891-1.88-6.057-2.495-8.598-2.989c-1.328-0.257-2.582-0.501-3.502-0.862c-1.311-0.515-2.619-1.208-3.883-1.874
			c-2.719-1.438-5.535-2.926-8.711-2.829c-5.314,0.183-8.666,3.636-11.359,6.41c-0.318,0.332-0.637,0.657-0.951,0.973
			c-0.316,0.316-0.641,0.634-0.973,0.952c-2.775,2.694-6.23,6.046-6.41,11.376c-0.096,3.161,1.389,5.971,2.826,8.688
			c0.668,1.265,1.361,2.573,1.875,3.885c0.361,0.921,0.605,2.173,0.861,3.497c0.494,2.547,1.109,5.713,2.988,8.608
			c1.227,1.884,3.332,3.616,5.309,5.116c1.436,1.094,2.75,2.082,3.818,3.342c0.766,0.908,1.443,2.258,2.16,3.689
			c1.088,2.17,2.32,4.63,4.396,6.707l2.637-2.637l-2.625,2.647c2.744,2.744,6.115,4.377,9.09,5.82
			c1.674,0.811,3.258,1.58,4.586,2.46c1.594,1.058,3.08,2.37,4.654,3.76c2.424,2.139,4.93,4.349,8.025,5.759
			c3.17,1.442,6.529,1.946,9.492,2.389c2.102,0.316,4.082,0.612,5.742,1.19c2.389,0.828,4.658,2.193,6.855,3.514
			c2.123,1.278,4.322,2.601,6.652,3.453c5.264,1.936,9.014,3.623,11.432,6.04c1.457,1.457,3.818,1.457,5.275,0.001
			C322.748,275.922,322.746,273.562,321.289,272.105z"/>
		<path d="M74.313,32.488c1.183,1.184,1.879,3.911,2.619,6.8c0.486,1.909,1.037,4.071,1.828,6.219
			c0.855,2.339,2.18,4.538,3.457,6.661c1.318,2.194,2.686,4.464,3.514,6.849c0.572,1.656,0.869,3.636,1.184,5.732
			c0.445,2.968,0.947,6.331,2.393,9.504c1.41,3.094,3.615,5.594,5.75,8.014c1.393,1.577,2.705,3.067,3.766,4.666
			c0.887,1.334,1.654,2.919,2.469,4.599c1.443,2.974,3.078,6.344,5.824,9.09c2.08,2.079,4.545,3.314,6.721,4.404
			c1.424,0.712,2.773,1.387,3.674,2.146c1.254,1.057,2.246,2.383,3.338,3.819c1.506,1.978,3.24,4.088,5.127,5.312
			c2.889,1.88,6.055,2.495,8.598,2.989c1.326,0.258,2.578,0.501,3.5,0.863c1.313,0.515,2.619,1.208,3.881,1.874
			c2.721,1.438,5.535,2.926,8.713,2.829c5.314-0.184,8.664-3.636,11.357-6.41c0.32-0.332,0.637-0.657,0.953-0.973
			c0.316-0.316,0.643-0.633,0.973-0.952c2.775-2.694,6.229-6.046,6.41-11.376c0.096-3.162-1.391-5.971-2.826-8.688
			c-0.668-1.265-1.361-2.574-1.875-3.886c-0.361-0.921-0.605-2.173-0.861-3.497c-0.494-2.548-1.107-5.714-2.988-8.608
			c-1.225-1.885-3.332-3.617-5.307-5.117c-1.438-1.094-2.754-2.081-3.82-3.342c-0.768-0.908-1.443-2.258-2.162-3.688
			c-1.088-2.171-2.318-4.631-4.396-6.708l-2.635,2.637l2.625-2.648c-2.744-2.744-6.115-4.377-9.088-5.819
			c-1.676-0.811-3.26-1.58-4.59-2.46c-1.592-1.059-3.08-2.371-4.652-3.761c-2.426-2.139-4.93-4.349-8.027-5.759
			c-3.17-1.442-6.525-1.946-9.49-2.39c-2.1-0.316-4.082-0.612-5.744-1.189c-2.387-0.827-4.656-2.193-6.854-3.514
			c-2.123-1.278-4.322-2.601-6.652-3.453c-5.264-1.936-9.014-3.622-11.432-6.04c-1.457-1.457-3.818-1.457-5.273-0.001
			C72.855,28.67,72.855,31.031,74.313,32.488z"/>
	</g>
	<g>
		<path d="M74.313,272.105c1.183-1.184,1.879-3.911,2.617-6.799c0.488-1.909,1.039-4.072,1.832-6.218
			c0.855-2.34,2.176-4.539,3.455-6.662c1.32-2.194,2.686-4.463,3.512-6.849c0.574-1.656,0.871-3.636,1.184-5.733
			c0.447-2.968,0.949-6.33,2.395-9.504c1.408-3.093,3.617-5.594,5.748-8.013c1.393-1.577,2.707-3.067,3.768-4.666
			c0.887-1.334,1.654-2.919,2.469-4.599c1.445-2.974,3.078-6.343,5.824-9.089c2.08-2.079,4.545-3.314,6.723-4.404
			c1.424-0.712,2.77-1.387,3.672-2.146c1.254-1.057,2.248-2.383,3.34-3.818c1.504-1.979,3.238-4.088,5.123-5.313
			c2.891-1.88,6.057-2.495,8.598-2.989c1.328-0.257,2.582-0.501,3.502-0.862c1.311-0.515,2.619-1.208,3.883-1.874
			c2.719-1.438,5.535-2.926,8.711-2.829c5.314,0.183,8.666,3.636,11.359,6.41c0.318,0.332,0.637,0.657,0.951,0.973
			c0.316,0.316,0.641,0.634,0.973,0.952c2.775,2.694,6.23,6.046,6.41,11.376c0.096,3.161-1.389,5.971-2.826,8.688
			c-0.668,1.265-1.361,2.573-1.875,3.885c-0.361,0.921-0.605,2.173-0.861,3.497c-0.494,2.547-1.109,5.713-2.988,8.608
			c-1.227,1.884-3.332,3.616-5.309,5.116c-1.436,1.094-2.75,2.082-3.818,3.342c-0.766,0.908-1.443,2.258-2.16,3.689
			c-1.088,2.17-2.32,4.63-4.396,6.707l-2.637-2.637l2.625,2.647c-2.744,2.744-6.115,4.377-9.09,5.82
			c-1.674,0.811-3.258,1.58-4.586,2.46c-1.594,1.058-3.08,2.37-4.654,3.76c-2.424,2.139-4.93,4.349-8.025,5.759
			c-3.17,1.442-6.529,1.946-9.492,2.389c-2.102,0.316-4.082,0.612-5.742,1.19c-2.389,0.828-4.658,2.193-6.855,3.514
			c-2.123,1.278-4.322,2.601-6.652,3.453c-5.264,1.936-9.014,3.623-11.432,6.04c-1.457,1.457-3.818,1.457-5.275,0.001
			C72.854,275.922,72.855,273.562,74.313,272.105z"/>
		<path d="M321.289,32.488c-1.184,1.184-1.879,3.911-2.619,6.8c-0.486,1.909-1.037,4.071-1.828,6.219
			c-0.855,2.339-2.18,4.538-3.457,6.661c-1.318,2.194-2.685,4.464-3.514,6.849c-0.572,1.656-0.869,3.636-1.184,5.732
			c-0.445,2.968-0.947,6.331-2.393,9.504c-1.41,3.094-3.615,5.594-5.75,8.014c-1.393,1.577-2.705,3.067-3.766,4.666
			c-0.887,1.334-1.654,2.919-2.469,4.599c-1.443,2.974-3.078,6.344-5.824,9.09c-2.08,2.079-4.545,3.314-6.721,4.404
			c-1.424,0.712-2.773,1.387-3.674,2.146c-1.254,1.057-2.246,2.383-3.338,3.819c-1.506,1.978-3.24,4.088-5.127,5.312
			c-2.889,1.88-6.055,2.495-8.598,2.989c-1.326,0.258-2.578,0.501-3.5,0.863c-1.313,0.515-2.619,1.208-3.881,1.874
			c-2.721,1.438-5.535,2.926-8.713,2.829c-5.314-0.184-8.664-3.636-11.357-6.41c-0.32-0.332-0.637-0.657-0.953-0.973
			c-0.316-0.316-0.643-0.633-0.973-0.952c-2.775-2.694-6.229-6.046-6.41-11.376c-0.096-3.162,1.391-5.971,2.826-8.688
			c0.668-1.265,1.361-2.574,1.875-3.886c0.361-0.921,0.605-2.173,0.861-3.497c0.494-2.548,1.107-5.714,2.988-8.608
			c1.225-1.885,3.332-3.617,5.307-5.117c1.438-1.094,2.754-2.081,3.82-3.342c0.768-0.908,1.443-2.258,2.162-3.688
			c1.088-2.171,2.318-4.631,4.396-6.708l2.635,2.637l-2.625-2.648c2.744-2.744,6.115-4.377,9.088-5.819
			c1.676-0.811,3.26-1.58,4.59-2.46c1.592-1.059,3.08-2.371,4.652-3.761c2.426-2.139,4.93-4.349,8.027-5.759
			c3.17-1.442,6.525-1.946,9.49-2.39c2.1-0.316,4.082-0.612,5.744-1.189c2.387-0.827,4.656-2.193,6.853-3.514
			c2.123-1.278,4.322-2.601,6.652-3.453c5.264-1.936,9.014-3.622,11.432-6.04c1.457-1.457,3.818-1.457,5.273-0.001
			C322.746,28.67,322.746,31.031,321.289,32.488z"/>
	</g>
	<g>
		<path d="M196.108,2.426c0,1.088-0.934,2.662-1.923,4.33c-0.653,1.102-1.395,2.35-2.018,3.701
			c-0.682,1.469-1.084,3.088-1.474,4.652c-0.401,1.615-0.817,3.287-1.533,4.764c-0.498,1.025-1.273,2.072-2.092,3.18
			c-1.159,1.57-2.475,3.348-3.27,5.471c-0.774,2.07-0.909,4.234-1.041,6.328c-0.085,1.365-0.166,2.654-0.414,3.877
			c-0.206,1.021-0.581,2.104-0.979,3.25c-0.704,2.031-1.501,4.332-1.501,6.857c0,1.912,0.565,3.613,1.064,5.115
			c0.328,0.982,0.637,1.912,0.702,2.676c0.091,1.063-0.063,2.129-0.22,3.291c-0.219,1.602-0.391,3.369-0.087,4.799
			c0.464,2.193,1.637,3.932,2.579,5.328c0.492,0.729,0.955,1.416,1.213,2.006c0.366,0.84,0.648,1.76,0.923,2.647
			c0.59,1.912,1.2,3.891,2.706,5.307c2.527,2.359,5.656,2.313,8.17,2.275c0.299-0.006,0.594-0.01,0.885-0.01
			c0.291,0,0.586,0.004,0.885,0.01c2.515,0.037,5.645,0.084,8.178-2.283c1.498-1.41,2.108-3.385,2.695-5.295
			c0.274-0.889,0.559-1.809,0.924-2.649c0.258-0.59,0.723-1.277,1.213-2.004c0.943-1.398,2.117-3.137,2.584-5.332
			c0.303-1.43,0.131-3.195-0.088-4.793c-0.158-1.164-0.309-2.223-0.22-3.293c0.065-0.77,0.375-1.701,0.702-2.69
			c0.498-1.498,1.063-3.195,1.063-5.105h-2.424l2.424-0.01c0-2.523-0.799-4.824-1.503-6.855c-0.398-1.143-0.773-2.225-0.978-3.24
			c-0.246-1.219-0.326-2.506-0.412-3.869c-0.131-2.098-0.266-4.266-1.041-6.338c-0.795-2.121-2.107-3.896-3.266-5.463
			c-0.82-1.111-1.596-2.158-2.094-3.188c-0.718-1.479-1.133-3.15-1.535-4.768c-0.39-1.564-0.793-3.184-1.473-4.647
			c-1.529-3.311-2.479-5.811-2.479-8.033c0-1.34-1.086-2.426-2.424-2.426C197.193,0,196.108,1.086,196.108,2.426z"/>
	</g>
</g>
<g>
</g>
<g>
</g>
<g>
</g>
<g>
</g>
<g>
</g>
<g>
</g>
<g>
</g>
<g>
</g>
<g>
</g>
<g>
</g>
<g>
</g>
<g>
</g>
<g>
</g>
<g>
</g>
<g>
</g>
</svg>
