<?xml version="1.0" encoding="iso-8859-1"?>
<!-- Generator: Adobe Illustrator 19.0.0, SVG Export Plug-In . SVG Version: 6.00 Build 0)  -->
<svg version="1.1" id="Layer_1" xmlns="http://www.w3.org/2000/svg" xmlns:xlink="http://www.w3.org/1999/xlink" x="0px" y="0px"
	 viewBox="0 0 512 512" style="enable-background:new 0 0 512 512;" xml:space="preserve">
<path style="fill:#FFE5BB;" d="M440.532,356.251l-16.631-16.632c-4.031-4.032-9.316-6.048-14.602-6.048
	c-5.284,0-10.57,2.016-14.602,6.048l-77.809,77.809h-53.36c1.424-2.8,2.245-5.952,2.245-9.293v-16.522
	c0-11.357-9.292-20.651-20.651-20.651H126.432v118.744h211.839c5.884,0,11.489-2.509,15.406-6.898l87.659-98.203
	C448.63,376.436,448.276,363.994,440.532,356.251z"/>
<path style="opacity:0.1;enable-background:new    ;" d="M165.093,463.935c-5.771,0-10.449-4.678-10.449-10.449v-82.524h-28.212
	v118.744h211.839c5.884,0,11.489-2.509,15.406-6.898l16.847-18.873H165.093z"/>
<path style="fill:#AADDC0;" d="M133.604,493.838c0,5.679-4.645,10.326-10.324,10.326H69.588c-5.679,0-10.325-4.647-10.325-10.326
	V355.474c0-5.679,4.646-10.326,10.325-10.326h53.694c5.678,0,10.324,4.648,10.324,10.326v138.363H133.604z"/>
<path style="fill:#FF8163;" d="M255.065,338.194c-5.471,0-10.718-2.174-14.587-6.046L98.152,189.697
	c-20.117-20.117-31.201-46.871-31.201-75.328S78.032,59.16,98.154,39.038c20.12-20.121,46.873-31.202,75.33-31.202
	c28.456,0,55.208,11.081,75.329,31.203l6.253,6.254l6.254-6.253c20.122-20.123,46.872-31.204,75.331-31.204
	c28.457,0,55.209,11.081,75.331,31.203c20.121,20.121,31.202,46.874,31.202,75.331c0,28.456-11.081,55.208-31.202,75.33
	L269.653,332.148C265.786,336.019,260.537,338.194,255.065,338.194z"/>
<g style="opacity:0.1;">
	<path d="M131.442,189.697c-20.117-20.117-31.201-46.871-31.201-75.328s11.081-55.209,31.203-75.331
		c16.141-16.142,36.552-26.459,58.685-29.91c-5.456-0.852-11.016-1.291-16.645-1.291c-28.457,0-55.21,11.081-75.331,31.203
		C78.031,59.16,66.95,85.914,66.95,114.37c0,28.456,11.083,55.21,31.201,75.328l142.328,142.451
		c3.869,3.871,9.116,6.046,14.587,6.046s10.721-2.174,14.588-6.046l2.058-2.059L131.442,189.697z"/>
</g>
<path style="opacity:0.1;enable-background:new    ;" d="M80.457,493.838V355.474c0-5.679,4.646-10.326,10.325-10.326H69.588
	c-5.679,0-10.325,4.648-10.325,10.326v138.363c0,5.679,4.646,10.326,10.325,10.326h21.194
	C85.102,504.163,80.457,499.517,80.457,493.838z"/>
<path style="fill:#FFED84;" d="M400.126,104.36c-20.163,12.994-30.698,23.526-43.69,43.689
	c-12.993-20.163-23.525-30.695-43.688-43.689c20.164-12.991,30.696-23.524,43.688-43.689
	C369.428,80.836,379.963,91.369,400.126,104.36z"/>
<rect x="397.925" y="17.848" transform="matrix(-0.7071 -0.7071 0.7071 -0.7071 689.38 366.6464)" style="fill:#FFFFFF;" width="45.4" height="45.4"/>
<path d="M407.963,104.36c0-2.662-1.353-5.145-3.592-6.587c-19.272-12.417-28.932-22.077-41.347-41.346
	c-1.442-2.239-3.924-3.592-6.588-3.592c-2.663,0-5.145,1.353-6.588,3.592C337.43,75.7,327.77,85.36,308.502,97.773
	c-2.239,1.442-3.592,3.924-3.592,6.587c0,2.663,1.352,5.145,3.592,6.588c19.269,12.418,28.93,22.078,41.346,41.347
	c1.443,2.239,3.925,3.592,6.588,3.592c2.663,0,5.145-1.353,6.588-3.592c12.413-19.266,22.073-28.926,41.347-41.347
	C406.61,109.504,407.963,107.024,407.963,104.36z M356.436,134.112c-8.847-12.243-17.507-20.903-29.751-29.751
	c12.243-8.846,20.903-17.506,29.751-29.751c8.847,12.244,17.505,20.902,29.752,29.751
	C373.942,113.211,365.282,121.869,356.436,134.112z"/>
<path d="M458.277,35L426.175,2.899c-3.06-3.061-8.023-3.061-11.083,0L399.309,18.68C380.849,6.538,359.256,0,336.65,0
	c-30.551,0-59.271,11.896-80.871,33.498l-0.713,0.713l-0.713-0.713C232.754,11.896,204.034,0,173.484,0
	c-30.551,0-59.272,11.896-80.872,33.498C71.01,55.1,59.114,83.821,59.114,114.37c0,30.549,11.896,59.269,33.494,80.867
	L234.936,337.69c5.377,5.379,12.525,8.341,20.129,8.341c7.607,0,14.757-2.963,20.132-8.342L393.04,219.742
	c3.059-3.062,3.056-8.024-0.005-11.082c-3.062-3.058-8.023-3.056-11.082,0.005L264.11,326.61c-2.379,2.381-5.676,3.747-9.044,3.747
	c-3.416,0-6.628-1.331-9.043-3.747L103.693,184.156c-18.64-18.64-28.906-43.424-28.906-69.787s10.266-51.149,28.907-69.79
	c18.641-18.64,43.426-28.906,69.79-28.906c26.363,0,51.147,10.266,69.787,28.907l6.253,6.254c3.062,3.059,8.023,3.061,11.082,0
	l6.255-6.253c18.641-18.642,43.426-28.908,69.79-28.908c18.391,0,36.008,5.005,51.312,14.355L382.99,35
	c-1.47,1.469-2.296,3.463-2.296,5.541c0,2.078,0.827,4.072,2.296,5.541l32.104,32.102c1.531,1.53,3.536,2.295,5.541,2.295
	c2.006,0,4.011-0.765,5.541-2.296l1.667-1.667c4.916,11.84,7.502,24.646,7.502,37.852c0,26.363-10.266,51.147-28.906,69.789
	c-3.06,3.061-3.06,8.023,0,11.082c3.06,3.062,8.023,3.061,11.082,0c21.601-21.602,33.497-50.323,33.497-80.871
	c0-17.504-3.919-34.401-11.319-49.709l18.578-18.578c1.47-1.47,2.296-3.463,2.296-5.541C460.573,38.463,459.747,36.469,458.277,35z
	 M420.635,61.56l-21.02-21.019l21.019-21.019l21.02,21.019L420.635,61.56z"/>
<path d="M429.443,334.079c-5.379-5.38-12.534-8.344-20.145-8.344c-7.61,0-14.763,2.963-20.144,8.344l-40.476,40.475
	c-3.06,3.06-3.06,8.023,0,11.082c3.059,3.061,8.022,3.061,11.082,0l40.476-40.475c2.419-2.42,5.636-3.752,9.06-3.752
	s6.641,1.332,9.06,3.752l16.632,16.632c4.801,4.801,5.021,12.529,0.499,17.594l-87.659,98.203c-2.427,2.72-5.912,4.28-9.559,4.28
	H141.441v-17.935c0-4.328-3.509-7.837-7.837-7.837c-4.328,0-7.837,3.509-7.837,7.837v29.903c0,1.349-1.139,2.489-2.487,2.489H69.588
	c-1.349,0-2.488-1.14-2.488-2.489v-8.685h37.594c4.328,0,7.837-3.509,7.837-7.837s-3.509-7.837-7.837-7.837H67.1v-11.172h37.594
	c4.328,0,7.837-3.509,7.837-7.837c0-4.328-3.509-7.837-7.837-7.837H67.1v-11.174h37.594c4.328,0,7.837-3.509,7.837-7.837
	s-3.509-7.837-7.837-7.837H67.1v-11.172h37.594c4.328,0,7.837-3.509,7.837-7.837c0-4.328-3.509-7.837-7.837-7.837H67.1v-11.173
	h37.594c4.328,0,7.837-3.509,7.837-7.837c0-4.328-3.509-7.837-7.837-7.837H67.1v-6.619c0-1.35,1.139-2.489,2.488-2.489h53.694
	c1.348,0,2.487,1.14,2.487,2.489v76.069c0,4.328,3.509,7.837,7.837,7.837c4.328,0,7.837-3.509,7.837-7.837V378.8h103.68
	c7.066,0,12.815,5.748,12.815,12.815v16.522c0,7.066-5.748,12.814-12.815,12.814h-71.247c-4.328,0-7.837,3.509-7.837,7.837
	c0,4.328,3.509,7.837,7.837,7.837h71.247c9.283,0,17.541-4.464,22.745-11.357h49.02c2.078,0,4.072-0.825,5.541-2.296l14.344-14.345
	c3.06-3.061,3.06-8.023,0-11.082c-3.06-3.062-8.023-3.06-11.082,0l-12.05,12.05h-40.069c0.024-0.483,0.037-0.969,0.037-1.457
	v-16.522c0-15.709-12.779-28.488-28.488-28.488h-103.68v-7.652c0-10.015-8.146-18.162-18.16-18.162H69.588
	c-10.014,0-18.161,8.148-18.161,18.162v138.363c0,10.014,8.147,18.162,18.161,18.162h53.694c8.744,0,16.062-6.213,17.778-14.456
	h197.213c8.108,0,15.855-3.469,21.252-9.517l87.659-98.203c10.052-11.261,9.564-28.442-1.111-39.116L429.443,334.079z"/>
<g>
</g>
<g>
</g>
<g>
</g>
<g>
</g>
<g>
</g>
<g>
</g>
<g>
</g>
<g>
</g>
<g>
</g>
<g>
</g>
<g>
</g>
<g>
</g>
<g>
</g>
<g>
</g>
<g>
</g>
</svg>
