<?xml version="1.0" encoding="iso-8859-1"?>
<!-- Generator: Adobe Illustrator 19.0.0, SVG Export Plug-In . SVG Version: 6.00 Build 0)  -->
<svg xmlns="http://www.w3.org/2000/svg" xmlns:xlink="http://www.w3.org/1999/xlink" version="1.1" id="Layer_1" x="0px" y="0px" viewBox="0 0 453.9 453.9" style="enable-background:new 0 0 453.9 453.9;" xml:space="preserve" width="512" height="512">
<g>
	<path style="fill:#F7B239;" d="M226.95,0L110.52,98.08h22.2V430.9h31.41h125.63h31.41V98.08h22.21L226.95,0z M226.95,251.57   c-34.7,0-62.82-28.13-62.82-62.82s28.12-62.82,62.82-62.82c34.69,0,62.81,28.13,62.81,62.82S261.64,251.57,226.95,251.57z"/>
	<path style="fill:#B76B2C;" d="M250.23,286.59c-1.31-0.53-2.64-1.01-4-1.45c-1.32-0.42-2.65-0.81-4-1.14   c-4.89-1.23-10.01-1.88-15.28-1.88s-10.4,0.65-15.29,1.88c-2.74,0.68-5.41,1.54-8,2.58c-23.16,9.25-39.53,31.9-39.53,58.36v85.96   h125.63v-85.96C289.76,318.48,273.4,295.84,250.23,286.59z"/>
	<path style="fill:#C67934;" d="M226.947,47.606c10.822,0,19.594,8.772,19.594,19.594c0,10.822-8.772,19.605-19.594,19.605   s-19.594-8.783-19.594-19.605C207.353,56.378,216.125,47.606,226.947,47.606z"/>
	<path style="fill:#B56A2C;" d="M226.947,47.606c-2.721,0-5.312,0.557-7.667,1.559c7.011,2.984,11.928,9.935,11.928,18.036   c0,8.101-4.917,15.058-11.928,18.045c2.355,1.003,4.945,1.561,7.667,1.561c10.822,0,19.594-8.783,19.594-19.605   C246.541,56.378,237.769,47.606,226.947,47.606z"/>
	<path style="fill:#81BBEA;" d="M289.763,188.749c0,34.692-28.124,62.817-62.816,62.817c-15.517,0-29.723-5.631-40.688-14.955   c-13.533-11.517-22.128-28.686-22.128-47.862c0-34.691,28.124-62.815,62.817-62.815c19.175,0,36.344,8.595,47.861,22.128   C284.132,159.026,289.763,173.232,289.763,188.749L289.763,188.749z"/>
	<path style="fill:#4D4D4D;" d="M251.192,194.749h-24.246c-3.313,0-5.999-2.686-5.999-6v-37.767c0-3.313,2.686-6,5.999-6   c3.314,0,5.999,2.687,5.999,6v31.768h18.246c3.313,0,6.001,2.687,6.001,6C257.193,192.063,254.505,194.749,251.192,194.749   L251.192,194.749z"/>
	<path style="fill:#ACD0ED;" d="M274.809,148.062l-34.688,34.688h11.071c3.313,0,6.001,2.687,6.001,6c0,3.314-2.687,6-6.001,6   h-23.071l-41.862,41.862c1.432,1.216,2.918,2.37,4.455,3.458c0.016,0.011,0.033,0.023,0.049,0.034   c0.024,0.017,0.045,0.031,0.069,0.048c9.474,6.666,20.872,10.783,33.194,11.347c0.013,0,0.028,0.001,0.041,0.002   c0.047,0.002,0.091,0.004,0.138,0.006c0.017,0.001,0.034,0.001,0.05,0.002c0.044,0.001,0.087,0.003,0.132,0.005   c0.019,0,0.04,0.001,0.059,0.002c0.043,0.002,0.085,0.003,0.128,0.005c0.021,0.001,0.042,0.002,0.063,0.002   c0.039,0.001,0.08,0.003,0.12,0.004c0.025,0.001,0.052,0.001,0.078,0.002c0.038,0.001,0.076,0.002,0.114,0.004   c0.025,0,0.048,0.001,0.073,0.002c0.039,0.001,0.076,0.002,0.114,0.003c0.017,0,0.035,0.001,0.052,0.001   c0.073,0.002,0.147,0.004,0.221,0.006c0.034,0,0.07,0.001,0.104,0.002c0.028,0,0.055,0.001,0.084,0.001   c0.034,0.001,0.073,0.002,0.107,0.002c0.028,0,0.058,0.001,0.086,0.001c0.038,0.001,0.073,0.001,0.111,0.002   c0.027,0,0.055,0.001,0.082,0.001c0.036,0,0.073,0.001,0.108,0.001c0.028,0,0.057,0,0.085,0.001c0.038,0,0.078,0.001,0.116,0.001   c0.025,0,0.051,0,0.076,0c0.04,0,0.077,0.001,0.117,0.001c0.026,0,0.052,0,0.078,0c0.044,0,0.085,0,0.13,0.001   c0.021,0,0.042,0,0.063,0c0.063,0,0.13,0,0.193,0l0,0c34.691,0,62.816-28.125,62.816-62.817c0-0.063,0-0.13,0-0.193   c0-0.021,0-0.042,0-0.063c0-0.044,0-0.085-0.001-0.13c0-0.025,0-0.052,0-0.078c0-0.04-0.001-0.077-0.001-0.117   c0-0.025,0-0.051-0.001-0.076c0-0.038-0.001-0.078-0.001-0.116c0-0.028-0.001-0.057-0.001-0.085c0-0.036-0.001-0.072-0.002-0.108   c0-0.028-0.001-0.055-0.001-0.083c-0.001-0.038-0.001-0.071-0.002-0.109c0-0.028-0.001-0.059-0.002-0.087   c-0.001-0.034-0.001-0.072-0.002-0.105c-0.001-0.028-0.001-0.057-0.002-0.085c-0.001-0.034-0.002-0.067-0.002-0.101   c-0.003-0.132-0.007-0.266-0.011-0.397c-0.001-0.021-0.001-0.044-0.002-0.065c-0.001-0.04-0.003-0.079-0.004-0.118   c-0.001-0.023-0.002-0.049-0.002-0.073c-0.001-0.041-0.003-0.083-0.005-0.124c-0.001-0.019-0.001-0.04-0.002-0.058   c-0.002-0.044-0.003-0.088-0.005-0.132c-0.001-0.019-0.001-0.035-0.002-0.054c-0.002-0.045-0.004-0.091-0.006-0.136   c-0.001-0.017-0.001-0.027-0.002-0.044c-0.002-0.048-0.004-0.096-0.006-0.144c-0.001-0.012-0.001-0.021-0.002-0.033   c-0.563-12.323-4.682-23.724-11.348-33.199c-0.015-0.021-0.032-0.045-0.047-0.066c-0.012-0.017-0.025-0.036-0.037-0.053   c-0.03-0.042-0.058-0.083-0.088-0.124c-0.002-0.002-0.004-0.005-0.005-0.007c-1.059-1.49-2.182-2.931-3.364-4.32L274.809,148.062z"/>
	<path style="fill:#7C7C7C;" d="M251.192,182.749h-11.071l-12,12h23.071c3.313,0,6.001-2.686,6.001-6   C257.193,185.436,254.505,182.749,251.192,182.749L251.192,182.749z"/>
	<rect x="132.72" y="98.08" style="fill:#E5A030;" width="188.45" height="18.42"/>
	<path style="fill:#B3B3B3;" d="M211.66,284v44.24h-8v-41.66C206.25,285.54,208.92,284.68,211.66,284z"/>
	<path style="fill:#B3B3B3;" d="M250.23,286.59v85.63h-8V284c1.35,0.33,2.68,0.72,4,1.14C247.59,285.58,248.92,286.06,250.23,286.59   z"/>
	<path style="fill:#DD3B2A;" d="M259.5,388.2c0,10.48-3.3,19.47-8.02,23.37c-1.61,1.34-3.39,2.08-5.25,2.08   c-7.33,0-13.27-11.39-13.27-25.45c0-14.07,5.94-25.47,13.27-25.47c1.86,0,3.64,0.74,5.25,2.08   C256.2,368.71,259.5,377.71,259.5,388.2z"/>
	<path style="fill:#DD3B2A;" d="M220.93,339.71c0,10.479-3.3,19.479-8.02,23.38c-1.61,1.33-3.38,2.07-5.25,2.07   c-7.33,0-13.27-11.39-13.27-25.45c0-14.07,5.94-25.47,13.27-25.47c1.87,0,3.64,0.74,5.25,2.07   C217.63,320.21,220.93,329.22,220.93,339.71z"/>
	<path style="fill:#F24125;" d="M259.5,388.2c0,10.48-3.3,19.47-8.02,23.37c-4.72-3.9-8.02-12.89-8.02-23.37   c0-10.49,3.3-19.49,8.02-23.39C256.2,368.71,259.5,377.71,259.5,388.2z"/>
	<path style="fill:#F24125;" d="M220.93,339.71c0,10.479-3.3,19.479-8.02,23.38c-4.72-3.9-8.02-12.9-8.02-23.38   c0-10.49,3.3-19.5,8.02-23.4C217.63,320.21,220.93,329.22,220.93,339.71z"/>
	<path style="fill:#999999;" d="M246.23,285.14c-1.32-0.42-2.65-0.81-4-1.14v11.5c1.35,0.33,2.68,0.72,4,1.14   c1.36,0.44,2.69,0.92,4,1.45v-11.5C248.92,286.06,247.59,285.58,246.23,285.14z M203.66,298.08c2.59-1.04,5.26-1.9,8-2.58V284   c-2.74,0.68-5.41,1.54-8,2.58V298.08z"/>
	<rect x="116.949" y="423.9" style="fill:#C67934;" width="219.997" height="30"/>
</g>















</svg>
