<?xml version="1.0" encoding="iso-8859-1"?>
<!-- Generator: Adobe Illustrator 19.0.0, SVG Export Plug-In . SVG Version: 6.00 Build 0)  -->
<svg version="1.1" id="Layer_1" xmlns="http://www.w3.org/2000/svg" xmlns:xlink="http://www.w3.org/1999/xlink" x="0px" y="0px"
	 viewBox="0 0 512 512" style="enable-background:new 0 0 512 512;" xml:space="preserve">
<ellipse style="fill:#FFCF70;" cx="256.001" cy="319.93" rx="142.188" ry="56.579"/>
<path style="fill:#0BBBDA;" d="M189.996,281.405c-16.585,0-30.03-13.373-30.03-29.871V168.34c0-34.383,28.02-54.438,62.585-54.438
	h66.901c34.565,0,62.585,20.056,62.585,54.438v83.193c0,16.498-13.445,29.871-30.03,29.871H189.996z"/>
<polygon style="fill:#ECF0F1;" points="310.156,247.96 310.156,320.399 201.838,320.399 201.838,248.083 255.986,280.846 "/>
<polygon style="fill:#0BBBDA;" points="310.156,197.095 310.156,247.96 255.986,280.846 201.838,248.083 201.838,197.095 "/>
<path style="fill:#FFBAA8;" d="M259.63,113.902h-7.258c-22.974,0-37.13-18.623-37.13-41.597V52.763
	c0-22.974,14.157-41.597,37.13-41.597h7.258c22.974,0,37.13,18.623,37.13,41.597v19.542
	C296.76,95.279,282.603,113.902,259.63,113.902z"/>
<polygon style="fill:#ECF0F1;" points="291.66,113.902 256.001,181.089 220.343,113.902 "/>
<ellipse style="fill:#0BBBDA;" cx="256.001" cy="469.566" rx="59.184" ry="31.267"/>
<ellipse style="fill:#FFBAA8;" cx="430.203" cy="469.566" rx="59.184" ry="31.267"/>
<ellipse style="fill:#ECF0F1;" cx="81.798" cy="469.566" rx="59.184" ry="31.267"/>
<g>
	<circle style="fill:#231F20;" cx="256.001" cy="214.593" r="11.167"/>
	<path style="fill:#231F20;" d="M430.203,427.132c-3.825,0-7.557,0.169-11.185,0.489l-66.635-54.327
		c33.451-11.38,56.975-29.357,56.975-53.364c0-22.328-20.354-39.434-50.111-50.872c2.533-5.318,3.954-11.258,3.954-17.525V168.34
		c0-35.569-25.724-61.24-63.699-65.086c5.363-8.526,8.423-19.103,8.423-30.949V52.763C307.926,22.191,287.615,0,259.63,0h-7.258
		c-27.985,0-48.297,22.191-48.297,52.763v19.542c0,11.846,3.06,22.423,8.423,30.949c-37.975,3.847-63.699,29.518-63.699,65.086
		v83.193c0,6.267,1.423,12.206,3.954,17.525c-29.756,11.439-50.11,28.544-50.11,50.872c0,24.008,23.523,41.984,56.974,53.364
		l-66.635,54.327c-3.627-0.322-7.36-0.489-11.185-0.489c-40.107,0-70.351,18.242-70.351,42.434S41.691,512,81.798,512
		s70.351-18.242,70.351-42.434c0-15.373-12.225-28.335-31.422-35.748l65.367-53.293c18.527,3.988,38.65,6.334,58.74,6.971v40.124
		c-34.423,3.042-59.184,20.058-59.184,41.946c0,24.192,30.244,42.434,70.351,42.434s70.351-18.242,70.351-42.434
		c0-21.888-24.761-38.904-59.184-41.946v-40.124c20.09-0.637,40.213-2.984,58.74-6.971l65.366,53.293
		c-19.197,7.414-31.422,20.375-31.422,35.748c0,24.192,30.244,42.434,70.351,42.434s70.351-18.242,70.351-42.434
		S470.31,427.132,430.203,427.132z M129.815,469.566c0,8.195-18.706,20.1-48.017,20.1s-48.017-11.905-48.017-20.1
		s18.706-20.1,48.017-20.1S129.815,461.371,129.815,469.566z M273.09,125.069l-17.09,32.201l-17.09-32.201H273.09z M226.408,52.763
		c0-15.147,8.028-30.43,25.963-30.43h7.258c17.935,0,25.963,15.283,25.963,30.43v19.542c0,15.147-8.028,30.43-25.963,30.43h-7.258
		c-17.935,0-25.963-15.283-25.963-30.43V52.763z M171.133,168.34c0-26.515,20.32-40.028,42.773-42.746l32.231,60.73
		c1.936,3.65,5.732,5.932,9.864,5.932c4.132,0,7.927-2.281,9.864-5.932l32.231-60.73c22.453,2.717,42.773,16.231,42.773,42.746
		v83.193c0,10.314-8.461,18.704-18.863,18.704c-0.23,0-0.456,0.021-0.682,0.035V247.96v-50.865c0-6.167-5.001-11.167-11.167-11.167
		c-6.166,0-11.167,4.999-11.167,11.167v44.58l0,0l-43.014,26.113l-42.971-26.001v-44.692c0-6.167-5.001-11.167-11.167-11.167
		s-11.167,4.999-11.167,11.167v50.988v22.189c-0.224-0.013-0.448-0.035-0.676-0.035c-10.401,0-18.863-8.391-18.863-18.704
		L171.133,168.34L171.133,168.34z M213.005,267.892l37.2,22.509c3.56,2.153,8.021,2.151,11.576-0.009l37.208-22.589v41.43h-85.985
		v-41.341H213.005z M124.977,319.93c0-10.672,15.804-23.709,44.082-33.074c6.14,3.625,13.296,5.715,20.936,5.715
		c0.228,0,0.451-0.02,0.676-0.035v27.862c0,6.167,5.001,11.167,11.167,11.167h108.318c6.166,0,11.167-4.999,11.167-11.167v-27.862
		c0.227,0.013,0.452,0.035,0.682,0.035c7.64,0,14.796-2.089,20.937-5.715c28.278,9.365,44.083,22.402,44.083,33.074
		c0,18.962-49.847,45.412-131.025,45.412C174.823,365.342,124.977,338.893,124.977,319.93z M304.018,469.566
		c0,8.195-18.706,20.1-48.017,20.1s-48.017-11.905-48.017-20.1s18.706-20.1,48.017-20.1S304.018,461.371,304.018,469.566z
		 M430.203,489.666c-29.312,0-48.017-11.905-48.017-20.1s18.706-20.1,48.017-20.1s48.017,11.905,48.017,20.1
		S459.515,489.666,430.203,489.666z"/>
</g>
<g>
</g>
<g>
</g>
<g>
</g>
<g>
</g>
<g>
</g>
<g>
</g>
<g>
</g>
<g>
</g>
<g>
</g>
<g>
</g>
<g>
</g>
<g>
</g>
<g>
</g>
<g>
</g>
<g>
</g>
</svg>
